<svg width="716" height="394" viewBox="0 0 716 394" fill="none" xmlns="http://www.w3.org/2000/svg">
<g clip-path="url(#clip0)">
<rect width="716" height="394" fill="white"/>
<circle cx="84.5" cy="169.5" r="25.5" fill="#F6F6F6" stroke="white" stroke-width="2"/>
<path d="M658.5 177C658.5 493.735 401.512 750.5 84.5 750.5C-232.512 750.5 -489.5 493.735 -489.5 177C-489.5 -139.735 -232.512 -396.5 84.5 -396.5C401.512 -396.5 658.5 -139.735 658.5 177Z" stroke="#F2F2F2"/>
<path d="M569.5 177C569.5 444.581 352.359 661.5 84.5 661.5C-183.359 661.5 -400.5 444.581 -400.5 177C-400.5 -90.5815 -183.359 -307.5 84.5 -307.5C352.359 -307.5 569.5 -90.5815 569.5 177Z" stroke="#F2F2F2"/>
<circle cx="84.5" cy="176.5" r="392" stroke="#F2F2F2"/>
<circle cx="84.5" cy="176.5" r="303" stroke="#F2F2F2"/>
<circle cx="84.5" cy="176.5" r="217" stroke="#F2F2F2"/>
<path d="M215.5 177C215.5 249.627 156.848 308.5 84.5 308.5C12.1525 308.5 -46.5 249.627 -46.5 177C-46.5 104.373 12.1525 45.5 84.5 45.5C156.848 45.5 215.5 104.373 215.5 177Z" stroke="#F2F2F2"/>
<text fill="#7C7C7C" xml:space="preserve" style="white-space: pre" font-family="Roboto" font-size="15" font-weight="bold" letter-spacing="0em"><tspan x="68.1966" y="216.916">1990</tspan></text>
<text fill="#7C7C7C" xml:space="preserve" style="white-space: pre" font-family="Roboto" font-size="15" font-weight="bold" letter-spacing="0em"><tspan x="134" y="312.916">&#x2018;95</tspan></text>
<text fill="#7C7C7C" xml:space="preserve" style="white-space: pre" font-family="Roboto" font-size="15" font-weight="bold" letter-spacing="0em"><tspan x="228" y="350.916">&#x2018;00</tspan></text>
<text fill="#7C7C7C" xml:space="preserve" style="white-space: pre" font-family="Roboto" font-size="15" font-weight="bold" letter-spacing="0em"><tspan x="340" y="350.916">&#x2018;05</tspan></text>
<text fill="#7C7C7C" xml:space="preserve" style="white-space: pre" font-family="Roboto" font-size="15" font-weight="bold" letter-spacing="0em"><tspan x="443" y="350.916">&#x2018;10</tspan></text>
<text fill="#7C7C7C" xml:space="preserve" style="white-space: pre" font-family="Roboto" font-size="15" font-weight="bold" letter-spacing="0em"><tspan x="546" y="350.916">&#x2018;15</tspan></text>
<text fill="#7C7C7C" xml:space="preserve" style="white-space: pre" font-family="Roboto" font-size="15" font-weight="bold" letter-spacing="0em"><tspan x="643" y="350.916">&#x2018;20</tspan></text>
<path d="M161 111.5C160.724 111.5 160.5 111.724 160.5 112C160.5 112.276 160.724 112.5 161 112.5L161 111.5ZM208.354 112.354C208.549 112.158 208.549 111.842 208.354 111.646L205.172 108.464C204.976 108.269 204.66 108.269 204.464 108.464C204.269 108.66 204.269 108.976 204.464 109.172L207.293 112L204.464 114.828C204.269 115.024 204.269 115.34 204.464 115.536C204.66 115.731 204.976 115.731 205.172 115.536L208.354 112.354ZM161 112.5L208 112.5L208 111.5L161 111.5L161 112.5Z" fill="black"/>
<path d="M210 111.5C209.724 111.5 209.5 111.724 209.5 112C209.5 112.276 209.724 112.5 210 112.5V111.5ZM650.354 112.354C650.549 112.158 650.549 111.842 650.354 111.646L647.172 108.464C646.976 108.269 646.66 108.269 646.464 108.464C646.269 108.66 646.269 108.976 646.464 109.172L649.293 112L646.464 114.828C646.269 115.024 646.269 115.34 646.464 115.536C646.66 115.731 646.976 115.731 647.172 115.536L650.354 112.354ZM210 112.5L650 112.5V111.5L210 111.5V112.5Z" fill="black"/>
<path d="M363 83.5C362.724 83.5 362.5 83.7239 362.5 84C362.5 84.2762 362.724 84.5 363 84.5L363 83.5ZM646.354 84.3536C646.549 84.1583 646.549 83.8417 646.354 83.6464L643.172 80.4645C642.976 80.2692 642.66 80.2692 642.464 80.4645C642.269 80.6597 642.269 80.9763 642.464 81.1716L645.293 84L642.464 86.8284C642.269 87.0237 642.269 87.3403 642.464 87.5355C642.66 87.7308 642.976 87.7308 643.172 87.5355L646.354 84.3536ZM363 84.5L646 84.5L646 83.5L363 83.5L363 84.5Z" fill="black"/>
<path d="M114.674 112V111.5C114.471 111.5 114.288 111.623 114.211 111.811L114.674 112ZM159.354 112.354C159.549 112.158 159.549 111.842 159.354 111.646L156.172 108.464C155.976 108.269 155.66 108.269 155.464 108.464C155.269 108.66 155.269 108.976 155.464 109.172L158.293 112L155.464 114.828C155.269 115.024 155.269 115.34 155.464 115.536C155.66 115.731 155.976 115.731 156.172 115.536L159.354 112.354ZM91.4629 170.189L115.137 112.189L114.211 111.811L90.5371 169.811L91.4629 170.189ZM114.674 112.5H159V111.5H114.674V112.5Z" fill="black"/>
<path d="M273.999 296.5C273.722 296.5 273.499 296.724 273.5 297C273.501 297.276 273.725 297.5 274.001 297.5L273.999 296.5ZM641.855 297.353C642.05 297.158 642.049 296.842 641.853 296.646L638.661 293.464C638.466 293.269 638.149 293.269 637.954 293.464C637.76 293.66 637.761 293.976 637.956 294.171L640.793 297L637.973 299.828C637.779 300.024 637.78 300.34 637.975 300.535C638.171 300.731 638.488 300.731 638.683 300.535L641.855 297.353ZM274.001 297.5L641.502 297.5L641.499 296.5L273.999 296.5L274.001 297.5Z" fill="black"/>
<path d="M275.5 213.5V213C275.302 213 275.123 213.116 275.043 213.297L275.5 213.5ZM653.354 213.854C653.549 213.658 653.549 213.342 653.354 213.146L650.172 209.964C649.976 209.769 649.66 209.769 649.464 209.964C649.269 210.16 649.269 210.476 649.464 210.672L652.293 213.5L649.464 216.328C649.269 216.524 649.269 216.84 649.464 217.036C649.66 217.231 649.976 217.231 650.172 217.036L653.354 213.854ZM265.957 236.203L275.957 213.703L275.043 213.297L265.043 235.797L265.957 236.203ZM275.5 214H653V213H275.5V214Z" fill="black"/>
<path d="M229 296.5C228.724 296.5 228.5 296.724 228.5 297C228.5 297.276 228.724 297.5 229 297.5L229 296.5ZM271.354 297.354C271.549 297.158 271.549 296.842 271.354 296.646L268.172 293.464C267.976 293.269 267.66 293.269 267.464 293.464C267.269 293.66 267.269 293.976 267.464 294.172L270.293 297L267.464 299.828C267.269 300.024 267.269 300.34 267.464 300.536C267.66 300.731 267.976 300.731 268.172 300.536L271.354 297.354ZM229 297.5L271 297.5L271 296.5L229 296.5L229 297.5Z" fill="black"/>
<path d="M564 263.5C563.724 263.5 563.5 263.724 563.5 264C563.5 264.276 563.724 264.5 564 264.5L564 263.5ZM647.354 264.354C647.549 264.158 647.549 263.842 647.354 263.646L644.172 260.464C643.976 260.269 643.66 260.269 643.464 260.464C643.269 260.66 643.269 260.976 643.464 261.172L646.293 264L643.464 266.828C643.269 267.024 643.269 267.34 643.464 267.536C643.66 267.731 643.976 267.731 644.172 267.536L647.354 264.354ZM564 264.5L647 264.5L647 263.5L564 263.5L564 264.5Z" fill="black"/>
<path d="M181.5 263.5C181.224 263.5 181 263.724 181 264C181 264.276 181.224 264.5 181.5 264.5L181.5 263.5ZM561.354 264.354C561.549 264.158 561.549 263.842 561.354 263.646L558.172 260.464C557.976 260.269 557.66 260.269 557.465 260.464C557.269 260.66 557.269 260.976 557.465 261.172L560.293 264L557.465 266.828C557.269 267.024 557.269 267.34 557.465 267.536C557.66 267.731 557.976 267.731 558.172 267.536L561.354 264.354ZM181.5 264.5L561 264.5L561 263.5L181.5 263.5L181.5 264.5Z" fill="black"/>
<path d="M384.703 236.353C384.898 236.158 384.898 235.842 384.703 235.646L381.521 232.464C381.326 232.269 381.009 232.269 380.814 232.464C380.619 232.66 380.619 232.976 380.814 233.171L383.643 236L380.814 238.828C380.619 239.024 380.619 239.34 380.814 239.535C381.009 239.731 381.326 239.731 381.521 239.535L384.703 236.353ZM165.35 236.5H384.35V235.5H165.35V236.5Z" fill="black"/>
<path d="M151.366 284.482C151.632 284.556 151.908 284.4 151.982 284.134L153.184 279.797C153.258 279.531 153.102 279.256 152.836 279.182C152.57 279.108 152.294 279.264 152.221 279.53L151.152 283.385L147.297 282.316C147.031 282.242 146.756 282.398 146.682 282.664C146.608 282.93 146.764 283.206 147.03 283.279L151.366 284.482ZM87 170V169.5C86.8221 169.5 86.6577 169.594 86.5681 169.748C86.4785 169.902 86.4772 170.091 86.5648 170.246L87 170ZM654.354 170.354C654.549 170.158 654.549 169.842 654.354 169.646L651.172 166.464C650.976 166.269 650.66 166.269 650.464 166.464C650.269 166.66 650.269 166.976 650.464 167.172L653.293 170L650.464 172.828C650.269 173.024 650.269 173.34 650.464 173.536C650.66 173.731 650.976 173.731 651.172 173.536L654.354 170.354ZM151.935 283.754L87.4352 169.754L86.5648 170.246L151.065 284.246L151.935 283.754ZM87 170.5H654V169.5H87V170.5Z" fill="black"/>
<path d="M127 149V148.5C126.8 148.5 126.619 148.619 126.54 148.803L127 149ZM277.854 149.354C278.049 149.158 278.049 148.842 277.854 148.646L274.672 145.464C274.476 145.269 274.16 145.269 273.964 145.464C273.769 145.66 273.769 145.976 273.964 146.172L276.793 149L273.964 151.828C273.769 152.024 273.769 152.34 273.964 152.536C274.16 152.731 274.476 152.731 274.672 152.536L277.854 149.354ZM118.46 170.197L127.46 149.197L126.54 148.803L117.54 169.803L118.46 170.197ZM127 149.5H277.5V148.5H127V149.5Z" fill="black"/>
<path d="M217.375 325.484C217.643 325.553 217.915 325.392 217.984 325.125L219.107 320.767C219.176 320.5 219.015 320.227 218.747 320.158C218.48 320.089 218.207 320.25 218.138 320.518L217.141 324.391L213.267 323.393C213 323.324 212.727 323.485 212.658 323.753C212.589 324.02 212.75 324.293 213.018 324.362L217.375 325.484ZM125.569 170.254L217.069 325.254L217.931 324.746L126.431 169.746L125.569 170.254Z" fill="black"/>
<path d="M314 190V189.5C313.8 189.5 313.618 189.62 313.54 189.804L314 190ZM653.854 190.354C654.049 190.158 654.049 189.842 653.854 189.646L650.672 186.464C650.476 186.269 650.16 186.269 649.964 186.464C649.769 186.66 649.769 186.976 649.964 187.172L652.793 190L649.964 192.828C649.769 193.024 649.769 193.34 649.964 193.536C650.16 193.731 650.476 193.731 650.672 193.536L653.854 190.354ZM304.46 213.696L314.46 190.196L313.54 189.804L303.54 213.304L304.46 213.696ZM314 190.5H653.5V189.5H314V190.5Z" fill="black"/>
<path d="M436 321L435.551 321.22C435.635 321.391 435.809 321.5 436 321.5V321ZM635.854 321.354C636.049 321.158 636.049 320.842 635.854 320.646L632.672 317.464C632.476 317.269 632.16 317.269 631.964 317.464C631.769 317.66 631.769 317.976 631.964 318.172L634.793 321L631.964 323.828C631.769 324.024 631.769 324.34 631.964 324.536C632.16 324.731 632.476 324.731 632.672 324.536L635.854 321.354ZM424.051 297.72L435.551 321.22L436.449 320.78L424.949 297.28L424.051 297.72ZM436 321.5H635.5V320.5H436V321.5Z" fill="black"/>
<text transform="rotate(-0.614041)" fill="black" xml:space="preserve" style="white-space: pre" font-family="Roboto" font-size="13" font-weight="bold" letter-spacing="0em"><tspan x="277" y="233.31">Netscape</tspan></text>
<text transform="rotate(60.6686)" fill="black" xml:space="preserve" style="white-space: pre" font-family="Roboto" font-size="13" font-weight="bold" letter-spacing="0em"><tspan x="143.885" y="184.061">Mosaic</tspan></text>
<text transform="rotate(60.447)" fill="#FF0000" xml:space="preserve" style="white-space: pre" font-family="Roboto" font-size="13" font-weight="bold" letter-spacing="0em"><tspan x="103.955" y="184.061">WorldWideWeb</tspan></text>
<text fill="black" xml:space="preserve" style="white-space: pre" font-family="Roboto" font-size="13" font-weight="bold" letter-spacing="0em"><tspan x="315" y="211.061">Mozilla</tspan></text>
<text fill="black" xml:space="preserve" style="white-space: pre" font-family="Roboto" font-size="13" font-weight="bold" letter-spacing="0em"><tspan x="333" y="188.061">Firefox</tspan></text>
<text fill="black" xml:space="preserve" style="white-space: pre" font-family="Roboto" font-size="11" font-weight="bold" letter-spacing="0em"><tspan x="229" y="295.205">KHTML</tspan></text>
<text fill="black" xml:space="preserve" style="white-space: pre" font-family="Roboto" font-size="13" font-weight="bold" letter-spacing="0em"><tspan x="275" y="295.061">Safari</tspan></text>
<text fill="black" xml:space="preserve" style="white-space: pre" font-family="Roboto" font-size="13" font-weight="bold" letter-spacing="0em"><tspan x="440" y="319.061">Chrome/Chromium</tspan></text>
<text fill="black" xml:space="preserve" style="white-space: pre" font-family="Roboto" font-size="13" font-weight="bold" letter-spacing="0em"><tspan x="129" y="147.061">Line Mode Browser</tspan></text>
<text transform="rotate(-42.6701)" fill="#FF0000" xml:space="preserve" style="white-space: pre" font-family="Roboto" font-size="13" font-weight="bold" letter-spacing="0em"><tspan x="143.738" y="115.149"> httpd</tspan></text>
<text transform="rotate(-42.6701)" fill="#FF0000" xml:space="preserve" style="white-space: pre" font-family="Roboto" font-size="12" font-weight="bold" letter-spacing="0em"><tspan x="113" y="115.149">CERN</tspan></text>
<text transform="rotate(-44.1105)" fill="black" xml:space="preserve" style="white-space: pre" font-family="Roboto" font-size="12" font-weight="bold" letter-spacing="0em"><tspan x="166" y="114.12">NCSA HTTPd</tspan></text>
<text fill="black" xml:space="preserve" style="white-space: pre" font-family="Roboto" font-size="13" font-weight="bold" letter-spacing="0em"><tspan x="213" y="110.061">Apache </tspan><tspan x="291.069" y="110.061"> Server</tspan></text>
<text fill="black" xml:space="preserve" style="white-space: pre" font-family="Roboto" font-size="12" font-weight="bold" letter-spacing="0em"><tspan x="260.062" y="110.061">HTTP</tspan></text>
<text transform="rotate(-0.614041)" fill="#FF0000" xml:space="preserve" style="white-space: pre" font-family="Roboto" font-size="15" font-weight="bold" letter-spacing="0em"><tspan x="128" y="167.567"> <a xlink:href="https://craigmod.com">libwww</a></tspan></text>
<text transform="rotate(-0.614041)" fill="black" xml:space="preserve" style="white-space: pre" font-family="Roboto" font-size="15" font-weight="bold" letter-spacing="0em"><tspan x="366" y="81.1283">nginx</tspan></text>
<text fill="black" xml:space="preserve" style="white-space: pre" font-family="Roboto" font-size="15" font-weight="bold" letter-spacing="0em"><tspan x="188" y="261.916">Internet Explorer</tspan></text>
<text fill="black" xml:space="preserve" style="white-space: pre" font-family="Roboto" font-size="15" font-weight="bold" letter-spacing="0em"><tspan x="568" y="260.916">Edge</tspan></text>
</g>
<defs>
<clipPath id="clip0">
<rect width="716" height="394" fill="white"/>
</clipPath>
</defs>
</svg>
